<?xml version="1.0" encoding="utf-8"?>
<!-- Svg Vector Icons : http://www.onlinewebfonts.com/icon -->
<!DOCTYPE svg PUBLIC "-//W3C//DTD SVG 1.1//EN" "http://www.w3.org/Graphics/SVG/1.1/DTD/svg11.dtd">
<svg version="1.1" xmlns="http://www.w3.org/2000/svg" xmlns:xlink="http://www.w3.org/1999/xlink" x="0px" y="0px" viewBox="0 0 1000 1000" enable-background="new 0 0 1000 1000" xml:space="preserve">
<metadata> Svg Vector Icons : http://www.onlinewebfonts.com/icon </metadata>
<g><path d="M255,316.2v61.3h-61.2v-61.3H255z M255,377.5v61.3h61.3v-61.3H255z M377.5,745h428.7v-61.3H377.5V745z M377.5,561.2h-61.3v61.3h61.3V561.2z M316.2,438.7V500h61.3v-61.3H316.2z M255,683.7h-61.2V745H255V683.7z M990,71.3v857.5c0,33.8-27.4,61.3-61.3,61.3H71.3C37.4,990,10,962.6,10,928.7V71.3C10,37.4,37.4,10,71.3,10h857.5C962.6,10,990,37.4,990,71.3z M745,132.5h61.2V71.3H745V132.5z M622.5,132.5h61.2V71.3h-61.2V132.5z M928.7,193.8H71.3v735h857.5V193.8z M928.7,71.3h-61.2v61.3h61.2V71.3z M438.7,500h-61.3v61.2h61.3V500z M316.2,622.5H255v61.2h61.3V622.5z"/></g>
</svg>